<mxfile host="app.diagrams.net" agent="Mozilla/5.0 (Windows NT 6.3; WOW64) AppleWebKit/537.36 (KHTML, like Gecko) Chrome/109.0.0.0 Safari/537.36 OPR/95.0.0.0" version="24.7.7">
  <diagram id="OWhVImgsPQhgh414s4Nb" name="Страница — 2">
    <mxGraphModel dx="2647" dy="1580" grid="1" gridSize="10" guides="1" tooltips="1" connect="1" arrows="1" fold="1" page="1" pageScale="1" pageWidth="2336" pageHeight="1654" math="0" shadow="0">
      <root>
        <mxCell id="0" />
        <mxCell id="1" parent="0" />
        <mxCell id="_17QlnRGMXsa3ApeI-cz-1" value="&lt;h1 style=&quot;margin-top: 0px;&quot;&gt;Принципы построения приложений «чистая архитектура» для приложения «Заметки»&lt;/h1&gt;" style="text;html=1;whiteSpace=wrap;overflow=hidden;rounded=0;" parent="1" vertex="1">
          <mxGeometry x="640" y="30" width="1180" height="40" as="geometry" />
        </mxCell>
        <mxCell id="grhmKJ-KqUT_LW3hOoIU-1" value="Note" style="swimlane;fontStyle=0;childLayout=stackLayout;horizontal=1;startSize=26;fillColor=none;horizontalStack=0;resizeParent=1;resizeParentMax=0;resizeLast=0;collapsible=1;marginBottom=0;whiteSpace=wrap;html=1;" parent="1" vertex="1">
          <mxGeometry x="330" y="1140" width="360" height="424" as="geometry" />
        </mxCell>
        <mxCell id="grhmKJ-KqUT_LW3hOoIU-2" value="- id : int" style="text;strokeColor=none;fillColor=none;align=left;verticalAlign=top;spacingLeft=4;spacingRight=4;overflow=hidden;rotatable=0;points=[[0,0.5],[1,0.5]];portConstraint=eastwest;whiteSpace=wrap;html=1;" parent="grhmKJ-KqUT_LW3hOoIU-1" vertex="1">
          <mxGeometry y="26" width="360" height="26" as="geometry" />
        </mxCell>
        <mxCell id="grhmKJ-KqUT_LW3hOoIU-3" value="-&amp;nbsp;userId : int" style="text;strokeColor=none;fillColor=none;align=left;verticalAlign=top;spacingLeft=4;spacingRight=4;overflow=hidden;rotatable=0;points=[[0,0.5],[1,0.5]];portConstraint=eastwest;whiteSpace=wrap;html=1;" parent="grhmKJ-KqUT_LW3hOoIU-1" vertex="1">
          <mxGeometry y="52" width="360" height="26" as="geometry" />
        </mxCell>
        <mxCell id="grhmKJ-KqUT_LW3hOoIU-4" value="- title : String" style="text;strokeColor=none;fillColor=none;align=left;verticalAlign=top;spacingLeft=4;spacingRight=4;overflow=hidden;rotatable=0;points=[[0,0.5],[1,0.5]];portConstraint=eastwest;whiteSpace=wrap;html=1;" parent="grhmKJ-KqUT_LW3hOoIU-1" vertex="1">
          <mxGeometry y="78" width="360" height="26" as="geometry" />
        </mxCell>
        <mxCell id="grhmKJ-KqUT_LW3hOoIU-19" value="- details : String" style="text;strokeColor=none;fillColor=none;align=left;verticalAlign=top;spacingLeft=4;spacingRight=4;overflow=hidden;rotatable=0;points=[[0,0.5],[1,0.5]];portConstraint=eastwest;whiteSpace=wrap;html=1;" parent="grhmKJ-KqUT_LW3hOoIU-1" vertex="1">
          <mxGeometry y="104" width="360" height="26" as="geometry" />
        </mxCell>
        <mxCell id="grhmKJ-KqUT_LW3hOoIU-18" value="- creatingDate : Date" style="text;strokeColor=none;fillColor=none;align=left;verticalAlign=top;spacingLeft=4;spacingRight=4;overflow=hidden;rotatable=0;points=[[0,0.5],[1,0.5]];portConstraint=eastwest;whiteSpace=wrap;html=1;" parent="grhmKJ-KqUT_LW3hOoIU-1" vertex="1">
          <mxGeometry y="130" width="360" height="26" as="geometry" />
        </mxCell>
        <mxCell id="grhmKJ-KqUT_LW3hOoIU-5" value="- editDate : Date" style="text;strokeColor=none;fillColor=none;align=left;verticalAlign=top;spacingLeft=4;spacingRight=4;overflow=hidden;rotatable=0;points=[[0,0.5],[1,0.5]];portConstraint=eastwest;whiteSpace=wrap;html=1;" parent="grhmKJ-KqUT_LW3hOoIU-1" vertex="1">
          <mxGeometry y="156" width="360" height="26" as="geometry" />
        </mxCell>
        <mxCell id="grhmKJ-KqUT_LW3hOoIU-6" value="" style="line;strokeWidth=1;fillColor=none;align=left;verticalAlign=middle;spacingTop=-1;spacingLeft=3;spacingRight=3;rotatable=0;labelPosition=right;points=[];portConstraint=eastwest;strokeColor=inherit;" parent="grhmKJ-KqUT_LW3hOoIU-1" vertex="1">
          <mxGeometry y="182" width="360" height="8" as="geometry" />
        </mxCell>
        <mxCell id="grhmKJ-KqUT_LW3hOoIU-7" value="+ getId() : int" style="text;strokeColor=none;fillColor=none;align=left;verticalAlign=top;spacingLeft=4;spacingRight=4;overflow=hidden;rotatable=0;points=[[0,0.5],[1,0.5]];portConstraint=eastwest;whiteSpace=wrap;html=1;" parent="grhmKJ-KqUT_LW3hOoIU-1" vertex="1">
          <mxGeometry y="190" width="360" height="26" as="geometry" />
        </mxCell>
        <mxCell id="grhmKJ-KqUT_LW3hOoIU-8" value="+&amp;nbsp;getUserId() : int" style="text;strokeColor=none;fillColor=none;align=left;verticalAlign=top;spacingLeft=4;spacingRight=4;overflow=hidden;rotatable=0;points=[[0,0.5],[1,0.5]];portConstraint=eastwest;whiteSpace=wrap;html=1;" parent="grhmKJ-KqUT_LW3hOoIU-1" vertex="1">
          <mxGeometry y="216" width="360" height="26" as="geometry" />
        </mxCell>
        <mxCell id="grhmKJ-KqUT_LW3hOoIU-9" value="+&amp;nbsp;getTitle() : String" style="text;strokeColor=none;fillColor=none;align=left;verticalAlign=top;spacingLeft=4;spacingRight=4;overflow=hidden;rotatable=0;points=[[0,0.5],[1,0.5]];portConstraint=eastwest;whiteSpace=wrap;html=1;" parent="grhmKJ-KqUT_LW3hOoIU-1" vertex="1">
          <mxGeometry y="242" width="360" height="26" as="geometry" />
        </mxCell>
        <mxCell id="grhmKJ-KqUT_LW3hOoIU-10" value="+&amp;nbsp;getDetails() : String" style="text;strokeColor=none;fillColor=none;align=left;verticalAlign=top;spacingLeft=4;spacingRight=4;overflow=hidden;rotatable=0;points=[[0,0.5],[1,0.5]];portConstraint=eastwest;whiteSpace=wrap;html=1;" parent="grhmKJ-KqUT_LW3hOoIU-1" vertex="1">
          <mxGeometry y="268" width="360" height="26" as="geometry" />
        </mxCell>
        <mxCell id="grhmKJ-KqUT_LW3hOoIU-11" value="+&amp;nbsp;getCreatingDate() : Date" style="text;strokeColor=none;fillColor=none;align=left;verticalAlign=top;spacingLeft=4;spacingRight=4;overflow=hidden;rotatable=0;points=[[0,0.5],[1,0.5]];portConstraint=eastwest;whiteSpace=wrap;html=1;" parent="grhmKJ-KqUT_LW3hOoIU-1" vertex="1">
          <mxGeometry y="294" width="360" height="26" as="geometry" />
        </mxCell>
        <mxCell id="grhmKJ-KqUT_LW3hOoIU-12" value="+&amp;nbsp;getEditDate() : Date" style="text;strokeColor=none;fillColor=none;align=left;verticalAlign=top;spacingLeft=4;spacingRight=4;overflow=hidden;rotatable=0;points=[[0,0.5],[1,0.5]];portConstraint=eastwest;whiteSpace=wrap;html=1;" parent="grhmKJ-KqUT_LW3hOoIU-1" vertex="1">
          <mxGeometry y="320" width="360" height="26" as="geometry" />
        </mxCell>
        <mxCell id="grhmKJ-KqUT_LW3hOoIU-13" value="+&amp;nbsp;setTitle(String title)" style="text;strokeColor=none;fillColor=none;align=left;verticalAlign=top;spacingLeft=4;spacingRight=4;overflow=hidden;rotatable=0;points=[[0,0.5],[1,0.5]];portConstraint=eastwest;whiteSpace=wrap;html=1;" parent="grhmKJ-KqUT_LW3hOoIU-1" vertex="1">
          <mxGeometry y="346" width="360" height="26" as="geometry" />
        </mxCell>
        <mxCell id="grhmKJ-KqUT_LW3hOoIU-14" value="+&amp;nbsp;setDetails(String details)" style="text;strokeColor=none;fillColor=none;align=left;verticalAlign=top;spacingLeft=4;spacingRight=4;overflow=hidden;rotatable=0;points=[[0,0.5],[1,0.5]];portConstraint=eastwest;whiteSpace=wrap;html=1;" parent="grhmKJ-KqUT_LW3hOoIU-1" vertex="1">
          <mxGeometry y="372" width="360" height="26" as="geometry" />
        </mxCell>
        <mxCell id="grhmKJ-KqUT_LW3hOoIU-15" value="+&amp;nbsp;setEditDate(Date editDate)" style="text;strokeColor=none;fillColor=none;align=left;verticalAlign=top;spacingLeft=4;spacingRight=4;overflow=hidden;rotatable=0;points=[[0,0.5],[1,0.5]];portConstraint=eastwest;whiteSpace=wrap;html=1;" parent="grhmKJ-KqUT_LW3hOoIU-1" vertex="1">
          <mxGeometry y="398" width="360" height="26" as="geometry" />
        </mxCell>
        <mxCell id="grhmKJ-KqUT_LW3hOoIU-20" value="NotesRecord" style="swimlane;fontStyle=0;childLayout=stackLayout;horizontal=1;startSize=26;fillColor=none;horizontalStack=0;resizeParent=1;resizeParentMax=0;resizeLast=0;collapsible=1;marginBottom=0;whiteSpace=wrap;html=1;" parent="1" vertex="1">
          <mxGeometry x="1810" y="550" width="360" height="424" as="geometry" />
        </mxCell>
        <mxCell id="grhmKJ-KqUT_LW3hOoIU-21" value="- id : int" style="text;strokeColor=none;fillColor=none;align=left;verticalAlign=top;spacingLeft=4;spacingRight=4;overflow=hidden;rotatable=0;points=[[0,0.5],[1,0.5]];portConstraint=eastwest;whiteSpace=wrap;html=1;" parent="grhmKJ-KqUT_LW3hOoIU-20" vertex="1">
          <mxGeometry y="26" width="360" height="26" as="geometry" />
        </mxCell>
        <mxCell id="grhmKJ-KqUT_LW3hOoIU-22" value="-&amp;nbsp;userId : int" style="text;strokeColor=none;fillColor=none;align=left;verticalAlign=top;spacingLeft=4;spacingRight=4;overflow=hidden;rotatable=0;points=[[0,0.5],[1,0.5]];portConstraint=eastwest;whiteSpace=wrap;html=1;" parent="grhmKJ-KqUT_LW3hOoIU-20" vertex="1">
          <mxGeometry y="52" width="360" height="26" as="geometry" />
        </mxCell>
        <mxCell id="grhmKJ-KqUT_LW3hOoIU-23" value="- title : String" style="text;strokeColor=none;fillColor=none;align=left;verticalAlign=top;spacingLeft=4;spacingRight=4;overflow=hidden;rotatable=0;points=[[0,0.5],[1,0.5]];portConstraint=eastwest;whiteSpace=wrap;html=1;" parent="grhmKJ-KqUT_LW3hOoIU-20" vertex="1">
          <mxGeometry y="78" width="360" height="26" as="geometry" />
        </mxCell>
        <mxCell id="grhmKJ-KqUT_LW3hOoIU-24" value="- details : String" style="text;strokeColor=none;fillColor=none;align=left;verticalAlign=top;spacingLeft=4;spacingRight=4;overflow=hidden;rotatable=0;points=[[0,0.5],[1,0.5]];portConstraint=eastwest;whiteSpace=wrap;html=1;" parent="grhmKJ-KqUT_LW3hOoIU-20" vertex="1">
          <mxGeometry y="104" width="360" height="26" as="geometry" />
        </mxCell>
        <mxCell id="grhmKJ-KqUT_LW3hOoIU-25" value="- creationDate : Date" style="text;strokeColor=none;fillColor=none;align=left;verticalAlign=top;spacingLeft=4;spacingRight=4;overflow=hidden;rotatable=0;points=[[0,0.5],[1,0.5]];portConstraint=eastwest;whiteSpace=wrap;html=1;" parent="grhmKJ-KqUT_LW3hOoIU-20" vertex="1">
          <mxGeometry y="130" width="360" height="26" as="geometry" />
        </mxCell>
        <mxCell id="grhmKJ-KqUT_LW3hOoIU-26" value="- editDate : Date" style="text;strokeColor=none;fillColor=none;align=left;verticalAlign=top;spacingLeft=4;spacingRight=4;overflow=hidden;rotatable=0;points=[[0,0.5],[1,0.5]];portConstraint=eastwest;whiteSpace=wrap;html=1;" parent="grhmKJ-KqUT_LW3hOoIU-20" vertex="1">
          <mxGeometry y="156" width="360" height="26" as="geometry" />
        </mxCell>
        <mxCell id="grhmKJ-KqUT_LW3hOoIU-27" value="" style="line;strokeWidth=1;fillColor=none;align=left;verticalAlign=middle;spacingTop=-1;spacingLeft=3;spacingRight=3;rotatable=0;labelPosition=right;points=[];portConstraint=eastwest;strokeColor=inherit;" parent="grhmKJ-KqUT_LW3hOoIU-20" vertex="1">
          <mxGeometry y="182" width="360" height="8" as="geometry" />
        </mxCell>
        <mxCell id="grhmKJ-KqUT_LW3hOoIU-28" value="+ getId() : int" style="text;strokeColor=none;fillColor=none;align=left;verticalAlign=top;spacingLeft=4;spacingRight=4;overflow=hidden;rotatable=0;points=[[0,0.5],[1,0.5]];portConstraint=eastwest;whiteSpace=wrap;html=1;" parent="grhmKJ-KqUT_LW3hOoIU-20" vertex="1">
          <mxGeometry y="190" width="360" height="26" as="geometry" />
        </mxCell>
        <mxCell id="grhmKJ-KqUT_LW3hOoIU-29" value="+&amp;nbsp;getUserId() : int" style="text;strokeColor=none;fillColor=none;align=left;verticalAlign=top;spacingLeft=4;spacingRight=4;overflow=hidden;rotatable=0;points=[[0,0.5],[1,0.5]];portConstraint=eastwest;whiteSpace=wrap;html=1;" parent="grhmKJ-KqUT_LW3hOoIU-20" vertex="1">
          <mxGeometry y="216" width="360" height="26" as="geometry" />
        </mxCell>
        <mxCell id="grhmKJ-KqUT_LW3hOoIU-30" value="+&amp;nbsp;getTitle() : String" style="text;strokeColor=none;fillColor=none;align=left;verticalAlign=top;spacingLeft=4;spacingRight=4;overflow=hidden;rotatable=0;points=[[0,0.5],[1,0.5]];portConstraint=eastwest;whiteSpace=wrap;html=1;" parent="grhmKJ-KqUT_LW3hOoIU-20" vertex="1">
          <mxGeometry y="242" width="360" height="26" as="geometry" />
        </mxCell>
        <mxCell id="grhmKJ-KqUT_LW3hOoIU-31" value="+&amp;nbsp;getDetails() : String" style="text;strokeColor=none;fillColor=none;align=left;verticalAlign=top;spacingLeft=4;spacingRight=4;overflow=hidden;rotatable=0;points=[[0,0.5],[1,0.5]];portConstraint=eastwest;whiteSpace=wrap;html=1;" parent="grhmKJ-KqUT_LW3hOoIU-20" vertex="1">
          <mxGeometry y="268" width="360" height="26" as="geometry" />
        </mxCell>
        <mxCell id="grhmKJ-KqUT_LW3hOoIU-32" value="+&amp;nbsp;getCreationDate : Date" style="text;strokeColor=none;fillColor=none;align=left;verticalAlign=top;spacingLeft=4;spacingRight=4;overflow=hidden;rotatable=0;points=[[0,0.5],[1,0.5]];portConstraint=eastwest;whiteSpace=wrap;html=1;" parent="grhmKJ-KqUT_LW3hOoIU-20" vertex="1">
          <mxGeometry y="294" width="360" height="26" as="geometry" />
        </mxCell>
        <mxCell id="grhmKJ-KqUT_LW3hOoIU-33" value="+&amp;nbsp;getEditDate() : Date" style="text;strokeColor=none;fillColor=none;align=left;verticalAlign=top;spacingLeft=4;spacingRight=4;overflow=hidden;rotatable=0;points=[[0,0.5],[1,0.5]];portConstraint=eastwest;whiteSpace=wrap;html=1;" parent="grhmKJ-KqUT_LW3hOoIU-20" vertex="1">
          <mxGeometry y="320" width="360" height="26" as="geometry" />
        </mxCell>
        <mxCell id="grhmKJ-KqUT_LW3hOoIU-34" value="+&amp;nbsp;setTitle(String title)" style="text;strokeColor=none;fillColor=none;align=left;verticalAlign=top;spacingLeft=4;spacingRight=4;overflow=hidden;rotatable=0;points=[[0,0.5],[1,0.5]];portConstraint=eastwest;whiteSpace=wrap;html=1;" parent="grhmKJ-KqUT_LW3hOoIU-20" vertex="1">
          <mxGeometry y="346" width="360" height="26" as="geometry" />
        </mxCell>
        <mxCell id="grhmKJ-KqUT_LW3hOoIU-35" value="+&amp;nbsp;setDetails(String details)" style="text;strokeColor=none;fillColor=none;align=left;verticalAlign=top;spacingLeft=4;spacingRight=4;overflow=hidden;rotatable=0;points=[[0,0.5],[1,0.5]];portConstraint=eastwest;whiteSpace=wrap;html=1;" parent="grhmKJ-KqUT_LW3hOoIU-20" vertex="1">
          <mxGeometry y="372" width="360" height="26" as="geometry" />
        </mxCell>
        <mxCell id="grhmKJ-KqUT_LW3hOoIU-36" value="+&amp;nbsp;setEditDate(Date editDate)" style="text;strokeColor=none;fillColor=none;align=left;verticalAlign=top;spacingLeft=4;spacingRight=4;overflow=hidden;rotatable=0;points=[[0,0.5],[1,0.5]];portConstraint=eastwest;whiteSpace=wrap;html=1;" parent="grhmKJ-KqUT_LW3hOoIU-20" vertex="1">
          <mxGeometry y="398" width="360" height="26" as="geometry" />
        </mxCell>
        <mxCell id="grhmKJ-KqUT_LW3hOoIU-37" value="NotesTable" style="swimlane;fontStyle=0;childLayout=stackLayout;horizontal=1;startSize=26;fillColor=none;horizontalStack=0;resizeParent=1;resizeParentMax=0;resizeLast=0;collapsible=1;marginBottom=0;whiteSpace=wrap;html=1;" parent="1" vertex="1">
          <mxGeometry x="1810" y="320" width="360" height="164" as="geometry" />
        </mxCell>
        <mxCell id="ta9InymfOsy7iY2Zd_YK-3" value="- random : Random" style="text;strokeColor=none;fillColor=none;align=left;verticalAlign=top;spacingLeft=4;spacingRight=4;overflow=hidden;rotatable=0;points=[[0,0.5],[1,0.5]];portConstraint=eastwest;whiteSpace=wrap;html=1;" parent="grhmKJ-KqUT_LW3hOoIU-37" vertex="1">
          <mxGeometry y="26" width="360" height="26" as="geometry" />
        </mxCell>
        <mxCell id="grhmKJ-KqUT_LW3hOoIU-38" value="- random : Random" style="text;strokeColor=none;fillColor=none;align=left;verticalAlign=top;spacingLeft=4;spacingRight=4;overflow=hidden;rotatable=0;points=[[0,0.5],[1,0.5]];portConstraint=eastwest;whiteSpace=wrap;html=1;" parent="grhmKJ-KqUT_LW3hOoIU-37" vertex="1">
          <mxGeometry y="52" width="360" height="26" as="geometry" />
        </mxCell>
        <mxCell id="grhmKJ-KqUT_LW3hOoIU-43" value="- records : Collection&amp;lt;NotesRecord&amp;gt;" style="text;strokeColor=none;fillColor=none;align=left;verticalAlign=top;spacingLeft=4;spacingRight=4;overflow=hidden;rotatable=0;points=[[0,0.5],[1,0.5]];portConstraint=eastwest;whiteSpace=wrap;html=1;" parent="grhmKJ-KqUT_LW3hOoIU-37" vertex="1">
          <mxGeometry y="78" width="360" height="26" as="geometry" />
        </mxCell>
        <mxCell id="grhmKJ-KqUT_LW3hOoIU-44" value="" style="line;strokeWidth=1;fillColor=none;align=left;verticalAlign=middle;spacingTop=-1;spacingLeft=3;spacingRight=3;rotatable=0;labelPosition=right;points=[];portConstraint=eastwest;strokeColor=inherit;" parent="grhmKJ-KqUT_LW3hOoIU-37" vertex="1">
          <mxGeometry y="104" width="360" height="8" as="geometry" />
        </mxCell>
        <mxCell id="grhmKJ-KqUT_LW3hOoIU-45" value="+ getRandom() : Random" style="text;strokeColor=none;fillColor=none;align=left;verticalAlign=top;spacingLeft=4;spacingRight=4;overflow=hidden;rotatable=0;points=[[0,0.5],[1,0.5]];portConstraint=eastwest;whiteSpace=wrap;html=1;" parent="grhmKJ-KqUT_LW3hOoIU-37" vertex="1">
          <mxGeometry y="112" width="360" height="26" as="geometry" />
        </mxCell>
        <mxCell id="grhmKJ-KqUT_LW3hOoIU-46" value="+&amp;nbsp;getRecords() : Collection&amp;lt;NotesRecord&amp;gt;" style="text;strokeColor=none;fillColor=none;align=left;verticalAlign=top;spacingLeft=4;spacingRight=4;overflow=hidden;rotatable=0;points=[[0,0.5],[1,0.5]];portConstraint=eastwest;whiteSpace=wrap;html=1;" parent="grhmKJ-KqUT_LW3hOoIU-37" vertex="1">
          <mxGeometry y="138" width="360" height="26" as="geometry" />
        </mxCell>
        <mxCell id="grhmKJ-KqUT_LW3hOoIU-54" value="NotesDatabase" style="swimlane;fontStyle=0;childLayout=stackLayout;horizontal=1;startSize=26;fillColor=none;horizontalStack=0;resizeParent=1;resizeParentMax=0;resizeLast=0;collapsible=1;marginBottom=0;whiteSpace=wrap;html=1;" parent="1" vertex="1">
          <mxGeometry x="1500" y="170" width="190" height="86" as="geometry" />
        </mxCell>
        <mxCell id="grhmKJ-KqUT_LW3hOoIU-55" value="-&amp;nbsp;notesTable :&amp;nbsp;NotesTable" style="text;strokeColor=none;fillColor=none;align=left;verticalAlign=top;spacingLeft=4;spacingRight=4;overflow=hidden;rotatable=0;points=[[0,0.5],[1,0.5]];portConstraint=eastwest;whiteSpace=wrap;html=1;" parent="grhmKJ-KqUT_LW3hOoIU-54" vertex="1">
          <mxGeometry y="26" width="190" height="26" as="geometry" />
        </mxCell>
        <mxCell id="grhmKJ-KqUT_LW3hOoIU-57" value="" style="line;strokeWidth=1;fillColor=none;align=left;verticalAlign=middle;spacingTop=-1;spacingLeft=3;spacingRight=3;rotatable=0;labelPosition=right;points=[];portConstraint=eastwest;strokeColor=inherit;" parent="grhmKJ-KqUT_LW3hOoIU-54" vertex="1">
          <mxGeometry y="52" width="190" height="8" as="geometry" />
        </mxCell>
        <mxCell id="grhmKJ-KqUT_LW3hOoIU-58" value="+ getNotesTable() : NotesTable" style="text;strokeColor=none;fillColor=none;align=left;verticalAlign=top;spacingLeft=4;spacingRight=4;overflow=hidden;rotatable=0;points=[[0,0.5],[1,0.5]];portConstraint=eastwest;whiteSpace=wrap;html=1;" parent="grhmKJ-KqUT_LW3hOoIU-54" vertex="1">
          <mxGeometry y="60" width="190" height="26" as="geometry" />
        </mxCell>
        <mxCell id="oGNr0TUb0E2zvvcqnOeX-8" value="«interface»&lt;br&gt;&lt;div&gt;Editor&amp;lt;T, Tid&amp;gt;&lt;br&gt;&lt;/div&gt;&lt;div&gt;&lt;br&gt;&lt;/div&gt;&lt;div&gt;&lt;br&gt;&lt;/div&gt;&lt;div&gt;&lt;br&gt;&lt;/div&gt;&lt;div&gt;&lt;br&gt;&lt;/div&gt;&lt;div&gt;&lt;br&gt;&lt;/div&gt;&lt;div&gt;&lt;br&gt;&lt;/div&gt;&lt;div&gt;&lt;br&gt;&lt;/div&gt;&lt;div&gt;&lt;br&gt;&lt;/div&gt;&lt;div&gt;&lt;br&gt;&lt;/div&gt;" style="html=1;whiteSpace=wrap;" parent="1" vertex="1">
          <mxGeometry x="1460" y="670" width="170" height="180" as="geometry" />
        </mxCell>
        <mxCell id="oGNr0TUb0E2zvvcqnOeX-9" value="add(T item) : boolean" style="text;strokeColor=none;fillColor=none;align=left;verticalAlign=top;spacingLeft=4;spacingRight=4;overflow=hidden;rotatable=0;points=[[0,0.5],[1,0.5]];portConstraint=eastwest;whiteSpace=wrap;html=1;" parent="1" vertex="1">
          <mxGeometry x="1460" y="710" width="170" height="26" as="geometry" />
        </mxCell>
        <mxCell id="oGNr0TUb0E2zvvcqnOeX-10" value="edit(T item) : boolean" style="text;strokeColor=none;fillColor=none;align=left;verticalAlign=top;spacingLeft=4;spacingRight=4;overflow=hidden;rotatable=0;points=[[0,0.5],[1,0.5]];portConstraint=eastwest;whiteSpace=wrap;html=1;" parent="1" vertex="1">
          <mxGeometry x="1460" y="736" width="170" height="26" as="geometry" />
        </mxCell>
        <mxCell id="oGNr0TUb0E2zvvcqnOeX-11" value="remove(T item) : boolean" style="text;strokeColor=none;fillColor=none;align=left;verticalAlign=top;spacingLeft=4;spacingRight=4;overflow=hidden;rotatable=0;points=[[0,0.5],[1,0.5]];portConstraint=eastwest;whiteSpace=wrap;html=1;" parent="1" vertex="1">
          <mxGeometry x="1460" y="762" width="170" height="26" as="geometry" />
        </mxCell>
        <mxCell id="oGNr0TUb0E2zvvcqnOeX-12" value="getById(Tid id) :&amp;nbsp;Optional&amp;lt;T&amp;gt;" style="text;strokeColor=none;fillColor=none;align=left;verticalAlign=top;spacingLeft=4;spacingRight=4;overflow=hidden;rotatable=0;points=[[0,0.5],[1,0.5]];portConstraint=eastwest;whiteSpace=wrap;html=1;" parent="1" vertex="1">
          <mxGeometry x="1460" y="790" width="170" height="26" as="geometry" />
        </mxCell>
        <mxCell id="oGNr0TUb0E2zvvcqnOeX-13" value="getAll() :&amp;nbsp;&lt;span style=&quot;background-color: initial;&quot;&gt;Collection&amp;lt;T&amp;gt;&lt;/span&gt;" style="text;strokeColor=none;fillColor=none;align=left;verticalAlign=top;spacingLeft=4;spacingRight=4;overflow=hidden;rotatable=0;points=[[0,0.5],[1,0.5]];portConstraint=eastwest;whiteSpace=wrap;html=1;" parent="1" vertex="1">
          <mxGeometry x="1460" y="818" width="170" height="26" as="geometry" />
        </mxCell>
        <mxCell id="oGNr0TUb0E2zvvcqnOeX-22" value="«interface»&lt;br&gt;&lt;div&gt;NoteEditor&lt;br&gt;&lt;/div&gt;&lt;div&gt;&lt;br&gt;&lt;/div&gt;" style="html=1;whiteSpace=wrap;" parent="1" vertex="1">
          <mxGeometry x="1500" y="550" width="90" height="70" as="geometry" />
        </mxCell>
        <mxCell id="oGNr0TUb0E2zvvcqnOeX-23" value="printAll()" style="text;strokeColor=none;fillColor=none;align=left;verticalAlign=top;spacingLeft=4;spacingRight=4;overflow=hidden;rotatable=0;points=[[0,0.5],[1,0.5]];portConstraint=eastwest;whiteSpace=wrap;html=1;" parent="1" vertex="1">
          <mxGeometry x="1500" y="590" width="90" height="26" as="geometry" />
        </mxCell>
        <mxCell id="oGNr0TUb0E2zvvcqnOeX-30" value="«interface»&lt;br&gt;&lt;div&gt;NotesDatabaseContext&lt;br&gt;&lt;/div&gt;&lt;div&gt;&lt;br&gt;&lt;/div&gt;&lt;div&gt;&lt;br&gt;&lt;/div&gt;&lt;div&gt;&lt;br&gt;&lt;/div&gt;&lt;div&gt;&lt;br&gt;&lt;/div&gt;" style="html=1;whiteSpace=wrap;" parent="1" vertex="1">
          <mxGeometry x="825" y="330" width="170" height="100" as="geometry" />
        </mxCell>
        <mxCell id="oGNr0TUb0E2zvvcqnOeX-31" value="getAll()&amp;nbsp;:&amp;nbsp;Collection&amp;lt;Note&amp;gt;" style="text;strokeColor=none;fillColor=none;align=left;verticalAlign=top;spacingLeft=4;spacingRight=4;overflow=hidden;rotatable=0;points=[[0,0.5],[1,0.5]];portConstraint=eastwest;whiteSpace=wrap;html=1;" parent="1" vertex="1">
          <mxGeometry x="825" y="370" width="170" height="26" as="geometry" />
        </mxCell>
        <mxCell id="oGNr0TUb0E2zvvcqnOeX-32" value="saveChanges()&amp;nbsp;: boolean" style="text;strokeColor=none;fillColor=none;align=left;verticalAlign=top;spacingLeft=4;spacingRight=4;overflow=hidden;rotatable=0;points=[[0,0.5],[1,0.5]];portConstraint=eastwest;whiteSpace=wrap;html=1;" parent="1" vertex="1">
          <mxGeometry x="825" y="396" width="170" height="26" as="geometry" />
        </mxCell>
        <mxCell id="oGNr0TUb0E2zvvcqnOeX-37" value="«interface»&lt;br&gt;&lt;div&gt;NotesPresenter&lt;br&gt;&lt;/div&gt;&lt;div&gt;&lt;br&gt;&lt;/div&gt;&lt;div&gt;&lt;br&gt;&lt;/div&gt;" style="html=1;whiteSpace=wrap;" parent="1" vertex="1">
          <mxGeometry x="1125" y="810" width="180" height="70" as="geometry" />
        </mxCell>
        <mxCell id="oGNr0TUb0E2zvvcqnOeX-38" value="printAll(Collection&amp;lt;Note&amp;gt; notes)" style="text;strokeColor=none;fillColor=none;align=left;verticalAlign=top;spacingLeft=4;spacingRight=4;overflow=hidden;rotatable=0;points=[[0,0.5],[1,0.5]];portConstraint=eastwest;whiteSpace=wrap;html=1;" parent="1" vertex="1">
          <mxGeometry x="1125" y="850" width="180" height="26" as="geometry" />
        </mxCell>
        <mxCell id="3xUFW8VikIegZ7ZvLtM_-1" value="" style="endArrow=diamondThin;endFill=1;endSize=24;html=1;rounded=0;entryX=0.5;entryY=0;entryDx=0;entryDy=0;" parent="1" target="oGNr0TUb0E2zvvcqnOeX-8" edge="1">
          <mxGeometry width="160" relative="1" as="geometry">
            <mxPoint x="1545" y="620" as="sourcePoint" />
            <mxPoint x="2060" y="610" as="targetPoint" />
          </mxGeometry>
        </mxCell>
        <mxCell id="3xUFW8VikIegZ7ZvLtM_-2" value="ConcreteNoteEditor" style="swimlane;fontStyle=0;childLayout=stackLayout;horizontal=1;startSize=26;fillColor=none;horizontalStack=0;resizeParent=1;resizeParentMax=0;resizeLast=0;collapsible=1;marginBottom=0;whiteSpace=wrap;html=1;" parent="1" vertex="1">
          <mxGeometry x="860" y="490" width="500" height="268" as="geometry" />
        </mxCell>
        <mxCell id="3xUFW8VikIegZ7ZvLtM_-3" value="- dbContext : NotesDatabaseContext" style="text;strokeColor=none;fillColor=none;align=left;verticalAlign=top;spacingLeft=4;spacingRight=4;overflow=hidden;rotatable=0;points=[[0,0.5],[1,0.5]];portConstraint=eastwest;whiteSpace=wrap;html=1;" parent="3xUFW8VikIegZ7ZvLtM_-2" vertex="1">
          <mxGeometry y="26" width="500" height="26" as="geometry" />
        </mxCell>
        <mxCell id="3xUFW8VikIegZ7ZvLtM_-4" value="-&amp;nbsp;notesPresenter : NotesPresenter" style="text;strokeColor=none;fillColor=none;align=left;verticalAlign=top;spacingLeft=4;spacingRight=4;overflow=hidden;rotatable=0;points=[[0,0.5],[1,0.5]];portConstraint=eastwest;whiteSpace=wrap;html=1;" parent="3xUFW8VikIegZ7ZvLtM_-2" vertex="1">
          <mxGeometry y="52" width="500" height="26" as="geometry" />
        </mxCell>
        <mxCell id="3xUFW8VikIegZ7ZvLtM_-9" value="" style="line;strokeWidth=1;fillColor=none;align=left;verticalAlign=middle;spacingTop=-1;spacingLeft=3;spacingRight=3;rotatable=0;labelPosition=right;points=[];portConstraint=eastwest;strokeColor=inherit;" parent="3xUFW8VikIegZ7ZvLtM_-2" vertex="1">
          <mxGeometry y="78" width="500" height="8" as="geometry" />
        </mxCell>
        <mxCell id="3xUFW8VikIegZ7ZvLtM_-10" value="+ ConcreteNoteEditor(NotesDatabaseContext dbContext, NotesPresenter notesPresenter)" style="text;strokeColor=none;fillColor=none;align=left;verticalAlign=top;spacingLeft=4;spacingRight=4;overflow=hidden;rotatable=0;points=[[0,0.5],[1,0.5]];portConstraint=eastwest;whiteSpace=wrap;html=1;" parent="3xUFW8VikIegZ7ZvLtM_-2" vertex="1">
          <mxGeometry y="86" width="500" height="26" as="geometry" />
        </mxCell>
        <mxCell id="3xUFW8VikIegZ7ZvLtM_-11" value="+&amp;nbsp;add(Note item) : boolean" style="text;strokeColor=none;fillColor=none;align=left;verticalAlign=top;spacingLeft=4;spacingRight=4;overflow=hidden;rotatable=0;points=[[0,0.5],[1,0.5]];portConstraint=eastwest;whiteSpace=wrap;html=1;" parent="3xUFW8VikIegZ7ZvLtM_-2" vertex="1">
          <mxGeometry y="112" width="500" height="26" as="geometry" />
        </mxCell>
        <mxCell id="3xUFW8VikIegZ7ZvLtM_-12" value="+&amp;nbsp;edit(Note item) : boolean" style="text;strokeColor=none;fillColor=none;align=left;verticalAlign=top;spacingLeft=4;spacingRight=4;overflow=hidden;rotatable=0;points=[[0,0.5],[1,0.5]];portConstraint=eastwest;whiteSpace=wrap;html=1;" parent="3xUFW8VikIegZ7ZvLtM_-2" vertex="1">
          <mxGeometry y="138" width="500" height="26" as="geometry" />
        </mxCell>
        <mxCell id="3xUFW8VikIegZ7ZvLtM_-13" value="+&amp;nbsp;remove(Note item) : boolean" style="text;strokeColor=none;fillColor=none;align=left;verticalAlign=top;spacingLeft=4;spacingRight=4;overflow=hidden;rotatable=0;points=[[0,0.5],[1,0.5]];portConstraint=eastwest;whiteSpace=wrap;html=1;" parent="3xUFW8VikIegZ7ZvLtM_-2" vertex="1">
          <mxGeometry y="164" width="500" height="26" as="geometry" />
        </mxCell>
        <mxCell id="3xUFW8VikIegZ7ZvLtM_-14" value="+&amp;nbsp;getById(Integer id) : Optional&amp;lt;Note&amp;gt;" style="text;strokeColor=none;fillColor=none;align=left;verticalAlign=top;spacingLeft=4;spacingRight=4;overflow=hidden;rotatable=0;points=[[0,0.5],[1,0.5]];portConstraint=eastwest;whiteSpace=wrap;html=1;" parent="3xUFW8VikIegZ7ZvLtM_-2" vertex="1">
          <mxGeometry y="190" width="500" height="26" as="geometry" />
        </mxCell>
        <mxCell id="3xUFW8VikIegZ7ZvLtM_-15" value="+&amp;nbsp;getAll() : Collection&amp;lt;Note&amp;gt;" style="text;strokeColor=none;fillColor=none;align=left;verticalAlign=top;spacingLeft=4;spacingRight=4;overflow=hidden;rotatable=0;points=[[0,0.5],[1,0.5]];portConstraint=eastwest;whiteSpace=wrap;html=1;" parent="3xUFW8VikIegZ7ZvLtM_-2" vertex="1">
          <mxGeometry y="216" width="500" height="26" as="geometry" />
        </mxCell>
        <mxCell id="3xUFW8VikIegZ7ZvLtM_-16" value="+&amp;nbsp;printAll()" style="text;strokeColor=none;fillColor=none;align=left;verticalAlign=top;spacingLeft=4;spacingRight=4;overflow=hidden;rotatable=0;points=[[0,0.5],[1,0.5]];portConstraint=eastwest;whiteSpace=wrap;html=1;" parent="3xUFW8VikIegZ7ZvLtM_-2" vertex="1">
          <mxGeometry y="242" width="500" height="26" as="geometry" />
        </mxCell>
        <mxCell id="th-Xb76kemfqC3j_38kh-1" value="" style="endArrow=diamondThin;endFill=0;endSize=24;html=1;rounded=0;entryX=0.5;entryY=0;entryDx=0;entryDy=0;exitX=0.999;exitY=0.06;exitDx=0;exitDy=0;exitPerimeter=0;" parent="1" source="3xUFW8VikIegZ7ZvLtM_-2" target="oGNr0TUb0E2zvvcqnOeX-22" edge="1">
          <mxGeometry width="160" relative="1" as="geometry">
            <mxPoint x="1240" y="712" as="sourcePoint" />
            <mxPoint x="1400" y="712" as="targetPoint" />
            <Array as="points">
              <mxPoint x="1545" y="506" />
            </Array>
          </mxGeometry>
        </mxCell>
        <mxCell id="th-Xb76kemfqC3j_38kh-3" value="«interface»&lt;br&gt;&lt;div&gt;Database&lt;/div&gt;" style="html=1;whiteSpace=wrap;" parent="1" vertex="1">
          <mxGeometry x="1280" y="170" width="80" height="34" as="geometry" />
        </mxCell>
        <mxCell id="th-Xb76kemfqC3j_38kh-6" value="«interface»&lt;br&gt;&lt;div&gt;ModelConfiguration&amp;lt;T&amp;gt;&lt;br&gt;&lt;/div&gt;" style="html=1;whiteSpace=wrap;" parent="1" vertex="1">
          <mxGeometry x="420" y="536" width="160" height="34" as="geometry" />
        </mxCell>
        <mxCell id="th-Xb76kemfqC3j_38kh-8" value="NoteConfiguration" style="swimlane;fontStyle=0;childLayout=stackLayout;horizontal=1;startSize=26;fillColor=none;horizontalStack=0;resizeParent=1;resizeParentMax=0;resizeLast=0;collapsible=1;marginBottom=0;whiteSpace=wrap;html=1;" parent="1" vertex="1">
          <mxGeometry x="330" y="456" width="360" height="34" as="geometry" />
        </mxCell>
        <mxCell id="th-Xb76kemfqC3j_38kh-10" value="" style="line;strokeWidth=1;fillColor=none;align=left;verticalAlign=middle;spacingTop=-1;spacingLeft=3;spacingRight=3;rotatable=0;labelPosition=right;points=[];portConstraint=eastwest;strokeColor=inherit;" parent="th-Xb76kemfqC3j_38kh-8" vertex="1">
          <mxGeometry y="26" width="360" height="8" as="geometry" />
        </mxCell>
        <mxCell id="th-Xb76kemfqC3j_38kh-12" value="" style="endArrow=diamondThin;endFill=0;endSize=24;html=1;rounded=0;entryX=0.5;entryY=0;entryDx=0;entryDy=0;" parent="1" target="th-Xb76kemfqC3j_38kh-6" edge="1">
          <mxGeometry width="160" relative="1" as="geometry">
            <mxPoint x="500" y="490" as="sourcePoint" />
            <mxPoint x="880" y="496" as="targetPoint" />
          </mxGeometry>
        </mxCell>
        <mxCell id="th-Xb76kemfqC3j_38kh-13" value="ModelBuilder" style="swimlane;fontStyle=0;childLayout=stackLayout;horizontal=1;startSize=26;fillColor=none;horizontalStack=0;resizeParent=1;resizeParentMax=0;resizeLast=0;collapsible=1;marginBottom=0;whiteSpace=wrap;html=1;" parent="1" vertex="1">
          <mxGeometry x="290" y="330" width="440" height="60" as="geometry" />
        </mxCell>
        <mxCell id="th-Xb76kemfqC3j_38kh-15" value="" style="line;strokeWidth=1;fillColor=none;align=left;verticalAlign=middle;spacingTop=-1;spacingLeft=3;spacingRight=3;rotatable=0;labelPosition=right;points=[];portConstraint=eastwest;strokeColor=inherit;" parent="th-Xb76kemfqC3j_38kh-13" vertex="1">
          <mxGeometry y="26" width="440" height="8" as="geometry" />
        </mxCell>
        <mxCell id="th-Xb76kemfqC3j_38kh-16" value="+ applyConfiguratuon(ModelConfiguration&amp;lt;Note&amp;gt; configuration) :&amp;nbsp;ModelBuilder" style="text;strokeColor=none;fillColor=none;align=left;verticalAlign=top;spacingLeft=4;spacingRight=4;overflow=hidden;rotatable=0;points=[[0,0.5],[1,0.5]];portConstraint=eastwest;whiteSpace=wrap;html=1;" parent="th-Xb76kemfqC3j_38kh-13" vertex="1">
          <mxGeometry y="34" width="440" height="26" as="geometry" />
        </mxCell>
        <mxCell id="th-Xb76kemfqC3j_38kh-17" value="DbContext" style="swimlane;fontStyle=0;childLayout=stackLayout;horizontal=1;startSize=26;fillColor=none;horizontalStack=0;resizeParent=1;resizeParentMax=0;resizeLast=0;collapsible=1;marginBottom=0;whiteSpace=wrap;html=1;" parent="1" vertex="1">
          <mxGeometry x="370" y="170" width="280" height="138" as="geometry" />
        </mxCell>
        <mxCell id="th-Xb76kemfqC3j_38kh-18" value="# database : Database" style="text;strokeColor=none;fillColor=none;align=left;verticalAlign=top;spacingLeft=4;spacingRight=4;overflow=hidden;rotatable=0;points=[[0,0.5],[1,0.5]];portConstraint=eastwest;whiteSpace=wrap;html=1;" parent="th-Xb76kemfqC3j_38kh-17" vertex="1">
          <mxGeometry y="26" width="280" height="26" as="geometry" />
        </mxCell>
        <mxCell id="th-Xb76kemfqC3j_38kh-20" value="" style="line;strokeWidth=1;fillColor=none;align=left;verticalAlign=middle;spacingTop=-1;spacingLeft=3;spacingRight=3;rotatable=0;labelPosition=right;points=[];portConstraint=eastwest;strokeColor=inherit;" parent="th-Xb76kemfqC3j_38kh-17" vertex="1">
          <mxGeometry y="52" width="280" height="8" as="geometry" />
        </mxCell>
        <mxCell id="th-Xb76kemfqC3j_38kh-21" value="+ DbContext(Database database)" style="text;strokeColor=none;fillColor=none;align=left;verticalAlign=top;spacingLeft=4;spacingRight=4;overflow=hidden;rotatable=0;points=[[0,0.5],[1,0.5]];portConstraint=eastwest;whiteSpace=wrap;html=1;" parent="th-Xb76kemfqC3j_38kh-17" vertex="1">
          <mxGeometry y="60" width="280" height="26" as="geometry" />
        </mxCell>
        <mxCell id="th-Xb76kemfqC3j_38kh-19" value="# abstract onModulCreating(ModelBuilder builder)" style="text;strokeColor=none;fillColor=none;align=left;verticalAlign=top;spacingLeft=4;spacingRight=4;overflow=hidden;rotatable=0;points=[[0,0.5],[1,0.5]];portConstraint=eastwest;whiteSpace=wrap;html=1;" parent="th-Xb76kemfqC3j_38kh-17" vertex="1">
          <mxGeometry y="86" width="280" height="26" as="geometry" />
        </mxCell>
        <mxCell id="th-Xb76kemfqC3j_38kh-22" value="+&amp;nbsp;saveChanges() : boolean" style="text;strokeColor=none;fillColor=none;align=left;verticalAlign=top;spacingLeft=4;spacingRight=4;overflow=hidden;rotatable=0;points=[[0,0.5],[1,0.5]];portConstraint=eastwest;whiteSpace=wrap;html=1;" parent="th-Xb76kemfqC3j_38kh-17" vertex="1">
          <mxGeometry y="112" width="280" height="26" as="geometry" />
        </mxCell>
        <mxCell id="th-Xb76kemfqC3j_38kh-23" value="NotesDBContext" style="swimlane;fontStyle=0;childLayout=stackLayout;horizontal=1;startSize=26;fillColor=none;horizontalStack=0;resizeParent=1;resizeParentMax=0;resizeLast=0;collapsible=1;marginBottom=0;whiteSpace=wrap;html=1;" parent="1" vertex="1">
          <mxGeometry x="770" y="170" width="280" height="112" as="geometry" />
        </mxCell>
        <mxCell id="th-Xb76kemfqC3j_38kh-25" value="" style="line;strokeWidth=1;fillColor=none;align=left;verticalAlign=middle;spacingTop=-1;spacingLeft=3;spacingRight=3;rotatable=0;labelPosition=right;points=[];portConstraint=eastwest;strokeColor=inherit;" parent="th-Xb76kemfqC3j_38kh-23" vertex="1">
          <mxGeometry y="26" width="280" height="8" as="geometry" />
        </mxCell>
        <mxCell id="th-Xb76kemfqC3j_38kh-26" value="+ getAll() :&amp;nbsp;Collection&amp;lt;Note&amp;gt;" style="text;strokeColor=none;fillColor=none;align=left;verticalAlign=top;spacingLeft=4;spacingRight=4;overflow=hidden;rotatable=0;points=[[0,0.5],[1,0.5]];portConstraint=eastwest;whiteSpace=wrap;html=1;" parent="th-Xb76kemfqC3j_38kh-23" vertex="1">
          <mxGeometry y="34" width="280" height="26" as="geometry" />
        </mxCell>
        <mxCell id="th-Xb76kemfqC3j_38kh-27" value="+&amp;nbsp;NotesDBContext(Database database)" style="text;strokeColor=none;fillColor=none;align=left;verticalAlign=top;spacingLeft=4;spacingRight=4;overflow=hidden;rotatable=0;points=[[0,0.5],[1,0.5]];portConstraint=eastwest;whiteSpace=wrap;html=1;" parent="th-Xb76kemfqC3j_38kh-23" vertex="1">
          <mxGeometry y="60" width="280" height="26" as="geometry" />
        </mxCell>
        <mxCell id="th-Xb76kemfqC3j_38kh-28" value="#&amp;nbsp;onModulCreating(ModelBuilder builder)" style="text;strokeColor=none;fillColor=none;align=left;verticalAlign=top;spacingLeft=4;spacingRight=4;overflow=hidden;rotatable=0;points=[[0,0.5],[1,0.5]];portConstraint=eastwest;whiteSpace=wrap;html=1;" parent="th-Xb76kemfqC3j_38kh-23" vertex="1">
          <mxGeometry y="86" width="280" height="26" as="geometry" />
        </mxCell>
        <mxCell id="TDyE-QkaUEzoNznrFgVp-1" value="" style="endArrow=diamondThin;endFill=0;endSize=24;html=1;rounded=0;entryX=0.5;entryY=0;entryDx=0;entryDy=0;" parent="1" target="oGNr0TUb0E2zvvcqnOeX-30" edge="1">
          <mxGeometry width="160" relative="1" as="geometry">
            <mxPoint x="910" y="283" as="sourcePoint" />
            <mxPoint x="1410" y="460" as="targetPoint" />
          </mxGeometry>
        </mxCell>
        <mxCell id="TDyE-QkaUEzoNznrFgVp-2" value="" style="endArrow=diamondThin;endFill=1;endSize=24;html=1;rounded=0;" parent="1" edge="1">
          <mxGeometry width="160" relative="1" as="geometry">
            <mxPoint x="770" y="183" as="sourcePoint" />
            <mxPoint x="650" y="183" as="targetPoint" />
          </mxGeometry>
        </mxCell>
        <mxCell id="PKhfLiFv1hCQsRc-LV2g-1" value="" style="endArrow=open;endFill=1;endSize=12;html=1;rounded=0;exitX=0;exitY=0.25;exitDx=0;exitDy=0;entryX=0;entryY=0.5;entryDx=0;entryDy=0;" parent="1" source="th-Xb76kemfqC3j_38kh-13" target="th-Xb76kemfqC3j_38kh-19" edge="1">
          <mxGeometry width="160" relative="1" as="geometry">
            <mxPoint x="440" y="290" as="sourcePoint" />
            <mxPoint x="600" y="290" as="targetPoint" />
            <Array as="points">
              <mxPoint x="250" y="345" />
              <mxPoint x="250" y="269" />
            </Array>
          </mxGeometry>
        </mxCell>
        <mxCell id="PKhfLiFv1hCQsRc-LV2g-2" value="" style="endArrow=open;endFill=1;endSize=12;html=1;rounded=0;entryX=0;entryY=0.5;entryDx=0;entryDy=0;exitX=1;exitY=0.25;exitDx=0;exitDy=0;" parent="1" source="th-Xb76kemfqC3j_38kh-13" target="th-Xb76kemfqC3j_38kh-28" edge="1">
          <mxGeometry width="160" relative="1" as="geometry">
            <mxPoint x="550" y="400" as="sourcePoint" />
            <mxPoint x="710" y="400" as="targetPoint" />
            <Array as="points">
              <mxPoint x="750" y="345" />
              <mxPoint x="750" y="269" />
            </Array>
          </mxGeometry>
        </mxCell>
        <mxCell id="PKhfLiFv1hCQsRc-LV2g-3" value="" style="endArrow=open;endFill=1;endSize=12;html=1;rounded=0;exitX=0.471;exitY=0.01;exitDx=0;exitDy=0;entryX=0.477;entryY=1.028;entryDx=0;entryDy=0;entryPerimeter=0;exitPerimeter=0;" parent="1" source="th-Xb76kemfqC3j_38kh-8" target="th-Xb76kemfqC3j_38kh-16" edge="1">
          <mxGeometry width="160" relative="1" as="geometry">
            <mxPoint x="870" y="350" as="sourcePoint" />
            <mxPoint x="1030" y="350" as="targetPoint" />
          </mxGeometry>
        </mxCell>
        <mxCell id="PKhfLiFv1hCQsRc-LV2g-4" value="" style="endArrow=diamondThin;endFill=0;endSize=24;html=1;rounded=0;entryX=1;entryY=0.5;entryDx=0;entryDy=0;exitX=-0.001;exitY=0.153;exitDx=0;exitDy=0;exitPerimeter=0;" parent="1" source="grhmKJ-KqUT_LW3hOoIU-54" target="th-Xb76kemfqC3j_38kh-3" edge="1">
          <mxGeometry width="160" relative="1" as="geometry">
            <mxPoint x="1500" y="170" as="sourcePoint" />
            <mxPoint x="1990" y="200" as="targetPoint" />
          </mxGeometry>
        </mxCell>
        <mxCell id="PKhfLiFv1hCQsRc-LV2g-5" value="" style="endArrow=open;endFill=1;endSize=12;html=1;rounded=0;entryX=1;entryY=0.137;entryDx=0;entryDy=0;entryPerimeter=0;exitX=0.5;exitY=0;exitDx=0;exitDy=0;" parent="1" source="grhmKJ-KqUT_LW3hOoIU-37" target="grhmKJ-KqUT_LW3hOoIU-54" edge="1">
          <mxGeometry width="160" relative="1" as="geometry">
            <mxPoint x="1939" y="160" as="sourcePoint" />
            <mxPoint x="2190" y="460" as="targetPoint" />
            <Array as="points">
              <mxPoint x="1990" y="182" />
            </Array>
          </mxGeometry>
        </mxCell>
        <mxCell id="PKhfLiFv1hCQsRc-LV2g-6" value="" style="endArrow=open;endFill=1;endSize=12;html=1;rounded=0;exitX=0.5;exitY=0;exitDx=0;exitDy=0;entryX=0.5;entryY=1.021;entryDx=0;entryDy=0;entryPerimeter=0;" parent="1" source="grhmKJ-KqUT_LW3hOoIU-20" target="grhmKJ-KqUT_LW3hOoIU-46" edge="1">
          <mxGeometry width="160" relative="1" as="geometry">
            <mxPoint x="2100" y="860" as="sourcePoint" />
            <mxPoint x="2260" y="860" as="targetPoint" />
          </mxGeometry>
        </mxCell>
        <mxCell id="PKhfLiFv1hCQsRc-LV2g-7" value="" style="endArrow=open;endFill=1;endSize=12;html=1;rounded=0;exitX=0.998;exitY=0.137;exitDx=0;exitDy=0;exitPerimeter=0;entryX=0;entryY=0.5;entryDx=0;entryDy=0;" parent="1" source="th-Xb76kemfqC3j_38kh-23" target="th-Xb76kemfqC3j_38kh-3" edge="1">
          <mxGeometry width="160" relative="1" as="geometry">
            <mxPoint x="1100" y="360" as="sourcePoint" />
            <mxPoint x="1260" y="360" as="targetPoint" />
          </mxGeometry>
        </mxCell>
        <mxCell id="PKhfLiFv1hCQsRc-LV2g-8" value="" style="endArrow=open;endFill=1;endSize=12;html=1;rounded=0;exitX=0.5;exitY=0;exitDx=0;exitDy=0;entryX=0.5;entryY=0;entryDx=0;entryDy=0;" parent="1" source="th-Xb76kemfqC3j_38kh-17" target="th-Xb76kemfqC3j_38kh-3" edge="1">
          <mxGeometry width="160" relative="1" as="geometry">
            <mxPoint x="760" y="260" as="sourcePoint" />
            <mxPoint x="920" y="260" as="targetPoint" />
            <Array as="points">
              <mxPoint x="510" y="110" />
              <mxPoint x="920" y="110" />
              <mxPoint x="1320" y="110" />
            </Array>
          </mxGeometry>
        </mxCell>
        <mxCell id="PKhfLiFv1hCQsRc-LV2g-9" value="Controller" style="swimlane;fontStyle=0;childLayout=stackLayout;horizontal=1;startSize=26;fillColor=none;horizontalStack=0;resizeParent=1;resizeParentMax=0;resizeLast=0;collapsible=1;marginBottom=0;whiteSpace=wrap;html=1;" parent="1" vertex="1">
          <mxGeometry x="1035" y="1410" width="360" height="60" as="geometry" />
        </mxCell>
        <mxCell id="PKhfLiFv1hCQsRc-LV2g-11" value="" style="line;strokeWidth=1;fillColor=none;align=left;verticalAlign=middle;spacingTop=-1;spacingLeft=3;spacingRight=3;rotatable=0;labelPosition=right;points=[];portConstraint=eastwest;strokeColor=inherit;" parent="PKhfLiFv1hCQsRc-LV2g-9" vertex="1">
          <mxGeometry y="26" width="360" height="8" as="geometry" />
        </mxCell>
        <mxCell id="PKhfLiFv1hCQsRc-LV2g-12" value="+ &amp;lt;T extends Presenter&amp;gt; view(T Presenter)" style="text;strokeColor=none;fillColor=none;align=left;verticalAlign=top;spacingLeft=4;spacingRight=4;overflow=hidden;rotatable=0;points=[[0,0.5],[1,0.5]];portConstraint=eastwest;whiteSpace=wrap;html=1;" parent="PKhfLiFv1hCQsRc-LV2g-9" vertex="1">
          <mxGeometry y="34" width="360" height="26" as="geometry" />
        </mxCell>
        <mxCell id="PKhfLiFv1hCQsRc-LV2g-13" value="NotesController" style="swimlane;fontStyle=0;childLayout=stackLayout;horizontal=1;startSize=26;fillColor=none;horizontalStack=0;resizeParent=1;resizeParentMax=0;resizeLast=0;collapsible=1;marginBottom=0;whiteSpace=wrap;html=1;" parent="1" vertex="1">
          <mxGeometry x="1075" y="1183" width="280" height="164" as="geometry" />
        </mxCell>
        <mxCell id="PKhfLiFv1hCQsRc-LV2g-14" value="- noteEditor : NoteEditor" style="text;strokeColor=none;fillColor=none;align=left;verticalAlign=top;spacingLeft=4;spacingRight=4;overflow=hidden;rotatable=0;points=[[0,0.5],[1,0.5]];portConstraint=eastwest;whiteSpace=wrap;html=1;" parent="PKhfLiFv1hCQsRc-LV2g-13" vertex="1">
          <mxGeometry y="26" width="280" height="26" as="geometry" />
        </mxCell>
        <mxCell id="PKhfLiFv1hCQsRc-LV2g-15" value="" style="line;strokeWidth=1;fillColor=none;align=left;verticalAlign=middle;spacingTop=-1;spacingLeft=3;spacingRight=3;rotatable=0;labelPosition=right;points=[];portConstraint=eastwest;strokeColor=inherit;" parent="PKhfLiFv1hCQsRc-LV2g-13" vertex="1">
          <mxGeometry y="52" width="280" height="8" as="geometry" />
        </mxCell>
        <mxCell id="PKhfLiFv1hCQsRc-LV2g-16" value="+ NotesController(NoteEditor noteEditor)" style="text;strokeColor=none;fillColor=none;align=left;verticalAlign=top;spacingLeft=4;spacingRight=4;overflow=hidden;rotatable=0;points=[[0,0.5],[1,0.5]];portConstraint=eastwest;whiteSpace=wrap;html=1;" parent="PKhfLiFv1hCQsRc-LV2g-13" vertex="1">
          <mxGeometry y="60" width="280" height="26" as="geometry" />
        </mxCell>
        <mxCell id="PKhfLiFv1hCQsRc-LV2g-17" value="+&amp;nbsp;routeAddNote(Note note)" style="text;strokeColor=none;fillColor=none;align=left;verticalAlign=top;spacingLeft=4;spacingRight=4;overflow=hidden;rotatable=0;points=[[0,0.5],[1,0.5]];portConstraint=eastwest;whiteSpace=wrap;html=1;" parent="PKhfLiFv1hCQsRc-LV2g-13" vertex="1">
          <mxGeometry y="86" width="280" height="26" as="geometry" />
        </mxCell>
        <mxCell id="PKhfLiFv1hCQsRc-LV2g-20" value="+ routeRemoveNote(Note note)" style="text;strokeColor=none;fillColor=none;align=left;verticalAlign=top;spacingLeft=4;spacingRight=4;overflow=hidden;rotatable=0;points=[[0,0.5],[1,0.5]];portConstraint=eastwest;whiteSpace=wrap;html=1;" parent="PKhfLiFv1hCQsRc-LV2g-13" vertex="1">
          <mxGeometry y="112" width="280" height="26" as="geometry" />
        </mxCell>
        <mxCell id="PKhfLiFv1hCQsRc-LV2g-18" value="+&amp;nbsp;routeGetAll()" style="text;strokeColor=none;fillColor=none;align=left;verticalAlign=top;spacingLeft=4;spacingRight=4;overflow=hidden;rotatable=0;points=[[0,0.5],[1,0.5]];portConstraint=eastwest;whiteSpace=wrap;html=1;" parent="PKhfLiFv1hCQsRc-LV2g-13" vertex="1">
          <mxGeometry y="138" width="280" height="26" as="geometry" />
        </mxCell>
        <mxCell id="PKhfLiFv1hCQsRc-LV2g-19" value="" style="endArrow=diamondThin;endFill=1;endSize=24;html=1;rounded=0;entryX=0.5;entryY=0;entryDx=0;entryDy=0;exitX=0.501;exitY=0.981;exitDx=0;exitDy=0;exitPerimeter=0;" parent="1" source="PKhfLiFv1hCQsRc-LV2g-18" target="PKhfLiFv1hCQsRc-LV2g-9" edge="1">
          <mxGeometry width="160" relative="1" as="geometry">
            <mxPoint x="1215" y="1364" as="sourcePoint" />
            <mxPoint x="1405" y="1230" as="targetPoint" />
          </mxGeometry>
        </mxCell>
        <mxCell id="PKhfLiFv1hCQsRc-LV2g-21" value="«interface»&lt;br&gt;&lt;div&gt;Presenter&lt;br&gt;&lt;/div&gt;&lt;div&gt;&lt;br&gt;&lt;/div&gt;" style="html=1;whiteSpace=wrap;" parent="1" vertex="1">
          <mxGeometry x="1125" y="1048" width="180" height="70" as="geometry" />
        </mxCell>
        <mxCell id="PKhfLiFv1hCQsRc-LV2g-22" value="printAll(Collection&amp;lt;Note&amp;gt; notes)" style="text;strokeColor=none;fillColor=none;align=left;verticalAlign=top;spacingLeft=4;spacingRight=4;overflow=hidden;rotatable=0;points=[[0,0.5],[1,0.5]];portConstraint=eastwest;whiteSpace=wrap;html=1;" parent="1" vertex="1">
          <mxGeometry x="1125" y="1088" width="180" height="26" as="geometry" />
        </mxCell>
        <mxCell id="PKhfLiFv1hCQsRc-LV2g-23" value="NotesConsolePresenter" style="swimlane;fontStyle=0;childLayout=stackLayout;horizontal=1;startSize=26;fillColor=none;horizontalStack=0;resizeParent=1;resizeParentMax=0;resizeLast=0;collapsible=1;marginBottom=0;whiteSpace=wrap;html=1;" parent="1" vertex="1">
          <mxGeometry x="1120" y="933" width="190" height="60" as="geometry" />
        </mxCell>
        <mxCell id="PKhfLiFv1hCQsRc-LV2g-25" value="" style="line;strokeWidth=1;fillColor=none;align=left;verticalAlign=middle;spacingTop=-1;spacingLeft=3;spacingRight=3;rotatable=0;labelPosition=right;points=[];portConstraint=eastwest;strokeColor=inherit;" parent="PKhfLiFv1hCQsRc-LV2g-23" vertex="1">
          <mxGeometry y="26" width="190" height="8" as="geometry" />
        </mxCell>
        <mxCell id="PKhfLiFv1hCQsRc-LV2g-26" value="+ printAll(Collection&amp;lt;Note&amp;gt; notes)" style="text;strokeColor=none;fillColor=none;align=left;verticalAlign=top;spacingLeft=4;spacingRight=4;overflow=hidden;rotatable=0;points=[[0,0.5],[1,0.5]];portConstraint=eastwest;whiteSpace=wrap;html=1;" parent="PKhfLiFv1hCQsRc-LV2g-23" vertex="1">
          <mxGeometry y="34" width="190" height="26" as="geometry" />
        </mxCell>
        <mxCell id="PKhfLiFv1hCQsRc-LV2g-31" value="" style="endArrow=diamondThin;endFill=0;endSize=24;html=1;rounded=0;entryX=0.5;entryY=0;entryDx=0;entryDy=0;exitX=0.5;exitY=1;exitDx=0;exitDy=0;" parent="1" source="oGNr0TUb0E2zvvcqnOeX-37" target="PKhfLiFv1hCQsRc-LV2g-23" edge="1">
          <mxGeometry width="160" relative="1" as="geometry">
            <mxPoint x="1095" y="940" as="sourcePoint" />
            <mxPoint x="1255" y="940" as="targetPoint" />
          </mxGeometry>
        </mxCell>
        <mxCell id="PKhfLiFv1hCQsRc-LV2g-36" value="" style="endArrow=open;endFill=1;endSize=12;html=1;rounded=0;exitX=1;exitY=0.5;exitDx=0;exitDy=0;entryX=1;entryY=0.5;entryDx=0;entryDy=0;" parent="1" source="PKhfLiFv1hCQsRc-LV2g-12" target="PKhfLiFv1hCQsRc-LV2g-22" edge="1">
          <mxGeometry width="160" relative="1" as="geometry">
            <mxPoint x="1005" y="1108" as="sourcePoint" />
            <mxPoint x="1165" y="1108" as="targetPoint" />
            <Array as="points">
              <mxPoint x="1440" y="1457" />
              <mxPoint x="1440" y="1280" />
              <mxPoint x="1440" y="1100" />
            </Array>
          </mxGeometry>
        </mxCell>
        <mxCell id="PKhfLiFv1hCQsRc-LV2g-37" value="" style="endArrow=open;endFill=1;endSize=12;html=1;rounded=0;exitX=1;exitY=0.25;exitDx=0;exitDy=0;entryX=1;entryY=0.25;entryDx=0;entryDy=0;" parent="1" source="PKhfLiFv1hCQsRc-LV2g-23" target="PKhfLiFv1hCQsRc-LV2g-21" edge="1">
          <mxGeometry width="160" relative="1" as="geometry">
            <mxPoint x="1035" y="1128" as="sourcePoint" />
            <mxPoint x="1195" y="1128" as="targetPoint" />
            <Array as="points">
              <mxPoint x="1400" y="948" />
              <mxPoint x="1400" y="1000" />
              <mxPoint x="1400" y="1066" />
            </Array>
          </mxGeometry>
        </mxCell>
        <mxCell id="PKhfLiFv1hCQsRc-LV2g-42" value="" style="endArrow=open;endFill=1;endSize=12;html=1;rounded=0;exitX=1;exitY=0.25;exitDx=0;exitDy=0;entryX=1;entryY=0.5;entryDx=0;entryDy=0;" parent="1" source="oGNr0TUb0E2zvvcqnOeX-37" target="3xUFW8VikIegZ7ZvLtM_-4" edge="1">
          <mxGeometry width="160" relative="1" as="geometry">
            <mxPoint x="1140" y="880" as="sourcePoint" />
            <mxPoint x="1300" y="880" as="targetPoint" />
            <Array as="points">
              <mxPoint x="1420" y="828" />
              <mxPoint x="1420" y="555" />
            </Array>
          </mxGeometry>
        </mxCell>
        <mxCell id="PKhfLiFv1hCQsRc-LV2g-43" value="" style="endArrow=open;endFill=1;endSize=12;html=1;rounded=0;exitX=0.5;exitY=0;exitDx=0;exitDy=0;entryX=0;entryY=0.5;entryDx=0;entryDy=0;" parent="1" source="grhmKJ-KqUT_LW3hOoIU-1" target="oGNr0TUb0E2zvvcqnOeX-31" edge="1">
          <mxGeometry width="160" relative="1" as="geometry">
            <mxPoint x="860" y="760" as="sourcePoint" />
            <mxPoint x="1020" y="760" as="targetPoint" />
          </mxGeometry>
        </mxCell>
        <mxCell id="PKhfLiFv1hCQsRc-LV2g-44" value="" style="endArrow=open;endFill=1;endSize=12;html=1;rounded=0;exitX=0.5;exitY=0;exitDx=0;exitDy=0;entryX=0;entryY=0.75;entryDx=0;entryDy=0;" parent="1" source="grhmKJ-KqUT_LW3hOoIU-1" target="oGNr0TUb0E2zvvcqnOeX-37" edge="1">
          <mxGeometry width="160" relative="1" as="geometry">
            <mxPoint x="810" y="980" as="sourcePoint" />
            <mxPoint x="970" y="980" as="targetPoint" />
          </mxGeometry>
        </mxCell>
        <mxCell id="ta9InymfOsy7iY2Zd_YK-2" value="" style="endArrow=open;endFill=1;endSize=12;html=1;rounded=0;exitX=0.5;exitY=0;exitDx=0;exitDy=0;entryX=0;entryY=0.5;entryDx=0;entryDy=0;" parent="1" source="grhmKJ-KqUT_LW3hOoIU-1" target="PKhfLiFv1hCQsRc-LV2g-22" edge="1">
          <mxGeometry width="160" relative="1" as="geometry">
            <mxPoint x="1030" y="1060" as="sourcePoint" />
            <mxPoint x="1190" y="1060" as="targetPoint" />
          </mxGeometry>
        </mxCell>
        <mxCell id="l88XObK-QnPWD6vsIbKl-3" value="" style="endArrow=open;endFill=1;endSize=12;html=1;rounded=0;exitX=0;exitY=0.5;exitDx=0;exitDy=0;entryX=0.5;entryY=1;entryDx=0;entryDy=0;" edge="1" parent="1" source="3xUFW8VikIegZ7ZvLtM_-3" target="oGNr0TUb0E2zvvcqnOeX-30">
          <mxGeometry width="160" relative="1" as="geometry">
            <mxPoint x="1080" y="430" as="sourcePoint" />
            <mxPoint x="1240" y="430" as="targetPoint" />
            <Array as="points">
              <mxPoint x="840" y="529" />
              <mxPoint x="840" y="480" />
              <mxPoint x="910" y="480" />
            </Array>
          </mxGeometry>
        </mxCell>
      </root>
    </mxGraphModel>
  </diagram>
</mxfile>
